<?xml version="1.0" encoding="UTF-8" standalone="no"?>
<!-- Created with Inkscape (http://www.inkscape.org/) -->

<svg
   xmlns:dc="http://purl.org/dc/elements/1.1/"
   xmlns:cc="http://creativecommons.org/ns#"
   xmlns:rdf="http://www.w3.org/1999/02/22-rdf-syntax-ns#"
   xmlns:svg="http://www.w3.org/2000/svg"
   xmlns="http://www.w3.org/2000/svg"
   xmlns:sodipodi="http://sodipodi.sourceforge.net/DTD/sodipodi-0.dtd"
   xmlns:inkscape="http://www.inkscape.org/namespaces/inkscape"
   sodipodi:docname="profile_v05_notext_white.svg"
   viewBox="0 0 500 500"
   height="500"
   width="500"
   inkscape:version="0.91 r13725"
   version="1.1"
   id="svg3337">
  <metadata
     id="metadata3343">
    <rdf:RDF>
      <cc:Work
         rdf:about="">
        <dc:format>image/svg+xml</dc:format>
        <dc:type
           rdf:resource="http://purl.org/dc/dcmitype/StillImage" />
        <dc:title></dc:title>
      </cc:Work>
    </rdf:RDF>
  </metadata>
  <defs
     id="defs3341" />
  <sodipodi:namedview
     inkscape:current-layer="g5174"
     inkscape:window-maximized="1"
     inkscape:window-y="24"
     inkscape:window-x="0"
     inkscape:cy="356.7307"
     inkscape:cx="307.75354"
     inkscape:zoom="0.472"
     showgrid="false"
     id="namedview3339"
     inkscape:window-height="721"
     inkscape:window-width="1366"
     inkscape:pageshadow="2"
     inkscape:pageopacity="0"
     guidetolerance="10"
     gridtolerance="10"
     objecttolerance="10"
     borderopacity="1"
     bordercolor="#666666"
     pagecolor="#ffffff" />
  <path
     style="fill:#ff0000;fill-opacity:1;fill-rule:evenodd;stroke:#cb0000;stroke-width:11.67660618;stroke-linecap:butt;stroke-linejoin:miter;stroke-miterlimit:4;stroke-dasharray:none;stroke-dashoffset:0;stroke-opacity:1"
     d="m 0.26058227,269.01726 501.19937773,0"
     id="path4138"
     inkscape:connector-curvature="0" />
  <path
     style="fill:none;fill-opacity:1;fill-rule:evenodd;stroke:#339bfe;stroke-width:15.76011562;stroke-linecap:butt;stroke-linejoin:miter;stroke-miterlimit:4;stroke-dasharray:none;stroke-opacity:1"
     d="M 506.22944,63.289681 C 421.23217,85.326011 283.57264,175.73688 271.37397,273.32631 259.17531,370.91575 138.31869,454.65539 22.457377,466.65153"
     id="path4153"
     inkscape:connector-curvature="0"
     sodipodi:nodetypes="czc" />
  <rect
     style="color:#000000;clip-rule:nonzero;display:inline;overflow:visible;visibility:visible;opacity:1;isolation:auto;mix-blend-mode:normal;color-interpolation:sRGB;color-interpolation-filters:linearRGB;solid-color:#000000;solid-opacity:1;fill:none;fill-opacity:0.10643017;fill-rule:nonzero;stroke:#3399fd;stroke-width:15.76011562;stroke-linecap:butt;stroke-linejoin:miter;stroke-miterlimit:7.33333349;stroke-dasharray:none;stroke-dashoffset:0;stroke-opacity:1;color-rendering:auto;image-rendering:auto;shape-rendering:auto;text-rendering:auto;enable-background:accumulate"
     id="rect3336-3-6"
     width="36.974373"
     height="61.160233"
     x="276.33759"
     y="207.41599" />
  <rect
     style="color:#000000;clip-rule:nonzero;display:inline;overflow:visible;visibility:visible;opacity:1;isolation:auto;mix-blend-mode:normal;color-interpolation:sRGB;color-interpolation-filters:linearRGB;solid-color:#000000;solid-opacity:1;fill:none;fill-opacity:0.10643017;fill-rule:nonzero;stroke:#006666;stroke-width:15.76011562;stroke-linecap:butt;stroke-linejoin:miter;stroke-miterlimit:7.33333349;stroke-dasharray:none;stroke-dashoffset:0;stroke-opacity:1;color-rendering:auto;image-rendering:auto;shape-rendering:auto;text-rendering:auto;enable-background:accumulate"
     id="rect3336-3"
     width="68.890305"
     height="114.29483"
     x="312.60947"
     y="154.28139" />
  <rect
     style="color:#000000;clip-rule:nonzero;display:inline;overflow:visible;visibility:visible;opacity:1;isolation:auto;mix-blend-mode:normal;color-interpolation:sRGB;color-interpolation-filters:linearRGB;solid-color:#000000;solid-opacity:1;fill:none;fill-opacity:0.10643017;fill-rule:nonzero;stroke:#3399fd;stroke-width:15.76011562;stroke-linecap:butt;stroke-linejoin:miter;stroke-miterlimit:7.33333349;stroke-dasharray:none;stroke-dashoffset:0;stroke-opacity:1;color-rendering:auto;image-rendering:auto;shape-rendering:auto;text-rendering:auto;enable-background:accumulate"
     id="rect3336"
     width="89.126175"
     height="169.11943"
     x="382.25681"
     y="99.456787" />
  <g
     id="g4777"
     transform="matrix(1.853297,0,0,1.853297,-328.73793,-702.9278)">
    <path
       id="path11"
       d="m 407.06585,622.89832 -18.03446,-32.00162 -30.43478,-36.32358 38.01616,0.10923 27.48761,33.94507 -33.88831,2.78442 -34.13612,5.73456 z"
       style="fill:#000000;fill-opacity:0;fill-rule:evenodd"
       inkscape:connector-curvature="0" />
    <path
       id="path13"
       d="m 407.06585,622.89832 -18.03446,-32.00162 -30.43478,-36.32358 38.01616,0.10923 27.48761,33.94507 -33.88831,2.78442 -34.13612,5.73456 z"
       style="fill:none;fill-rule:evenodd;stroke:#cc0000;stroke-width:2;stroke-linecap:butt;stroke-linejoin:round;stroke-miterlimit:4;stroke-dasharray:none;stroke-opacity:1"
       inkscape:connector-curvature="0" />
    <path
       id="path17"
       d="m 372.21653,601.50431 0,0 c -2.21052,7.76288 -9.62173,12.9964 -17.76855,12.54752 -8.14681,-0.44892 -14.80452,-6.45768 -15.96202,-14.40613 -1.15748,-7.94846 3.50132,-15.66608 11.16962,-18.50318 7.6683,-2.83712 16.25203,-0.019 20.5797,6.75663 l -14.64867,9.16424 z"
       style="fill:#cc0000;fill-rule:evenodd"
       inkscape:connector-curvature="0" />
    <path
       id="path19"
       d="m 376.8454,560.40814 0,0 c -2.21053,7.76288 -9.62174,12.9964 -17.76855,12.54749 -8.14682,-0.44892 -14.80454,-6.45765 -15.96202,-14.40613 -1.1575,-7.94846 3.50132,-15.66608 11.16961,-18.50318 7.66829,-2.83709 16.25203,-0.019 20.5797,6.75663 l -14.64867,9.16424 z"
       style="fill:#cc0000;fill-rule:evenodd"
       inkscape:connector-curvature="0" />
    <path
       id="path21"
       d="m 404.93748,595.65739 0,0 c -2.21053,7.76288 -9.62174,12.9964 -17.76855,12.54748 -8.14683,-0.44891 -14.80453,-6.45764 -15.96203,-14.40609 -1.15749,-7.94849 3.50132,-15.66611 11.16962,-18.50321 7.6683,-2.83709 16.25203,-0.0189 20.5797,6.75663 l -14.64867,9.16424 z"
       style="fill:#cc0000;fill-rule:evenodd"
       inkscape:connector-curvature="0" />
    <path
       id="path23"
       d="m 411.83094,559.24027 0,0 c -2.21053,7.76288 -9.62174,12.9964 -17.76855,12.54748 -8.14682,-0.44888 -14.80453,-6.45764 -15.96203,-14.40609 -1.15749,-7.94846 3.50132,-15.66608 11.16962,-18.50321 7.66829,-2.83709 16.25203,-0.0189 20.5797,6.75663 l -14.64867,9.16424 z"
       style="fill:#cc0000;fill-rule:evenodd"
       inkscape:connector-curvature="0" />
    <path
       id="path25"
       d="m 439.23204,592.50314 0,0 c -2.21053,7.76288 -9.62172,12.9964 -17.76854,12.54752 -8.14682,-0.44892 -14.80453,-6.45768 -15.96202,-14.40613 -1.1575,-7.94846 3.50131,-15.66608 11.16962,-18.50318 7.66828,-2.83712 16.25201,-0.019 20.57969,6.75663 l -14.64866,9.16421 z"
       style="fill:#cc0000;fill-rule:evenodd"
       inkscape:connector-curvature="0" />
    <path
       id="path27"
       d="m 423.16842,628.45674 0,0 c -2.21053,7.76288 -9.62174,12.9964 -17.76856,12.54748 -8.14681,-0.44891 -14.80452,-6.45764 -15.96202,-14.40609 -1.15748,-7.94846 3.50132,-15.66611 11.16962,-18.50321 7.66829,-2.83709 16.25203,-0.0189 20.5797,6.75663 l -14.64867,9.16424 z"
       style="fill:#cc0000;fill-rule:evenodd"
       inkscape:connector-curvature="0" />
  </g>
  <rect
     style="color:#000000;clip-rule:nonzero;display:inline;overflow:visible;visibility:visible;opacity:1;isolation:auto;mix-blend-mode:normal;color-interpolation:sRGB;color-interpolation-filters:linearRGB;solid-color:#000000;solid-opacity:1;fill:none;fill-opacity:0.10643017;fill-rule:nonzero;stroke:#3399fd;stroke-width:16.49147415;stroke-linecap:butt;stroke-linejoin:miter;stroke-miterlimit:7.33333349;stroke-dasharray:none;stroke-dashoffset:0;stroke-opacity:1;color-rendering:auto;image-rendering:auto;shape-rendering:auto;text-rendering:auto;enable-background:accumulate"
     id="rect3336-3-6-3"
     width="40.643116"
     height="81.800255"
     x="-261.69373"
     y="-351.86746"
     transform="scale(-1,-1)" />
  <rect
     style="color:#000000;clip-rule:nonzero;display:inline;overflow:visible;visibility:visible;opacity:1;isolation:auto;mix-blend-mode:normal;color-interpolation:sRGB;color-interpolation-filters:linearRGB;solid-color:#000000;solid-opacity:1;fill:none;fill-opacity:0.10643017;fill-rule:nonzero;stroke:#006666;stroke-width:15.76011562;stroke-linecap:butt;stroke-linejoin:miter;stroke-miterlimit:7.33333349;stroke-dasharray:none;stroke-dashoffset:0;stroke-opacity:1;color-rendering:auto;image-rendering:auto;shape-rendering:auto;text-rendering:auto;enable-background:accumulate"
     id="rect3336-3-67"
     width="69.061813"
     height="132.14815"
     x="-221.11243"
     y="-401.84964"
     transform="scale(-1,-1)" />
  <rect
     style="color:#000000;clip-rule:nonzero;display:inline;overflow:visible;visibility:visible;opacity:1;isolation:auto;mix-blend-mode:normal;color-interpolation:sRGB;color-interpolation-filters:linearRGB;solid-color:#000000;solid-opacity:1;fill:none;fill-opacity:0.10643017;fill-rule:nonzero;stroke:#3399fd;stroke-width:16.2198658;stroke-linecap:butt;stroke-linejoin:miter;stroke-miterlimit:7.33333349;stroke-dasharray:none;stroke-dashoffset:0;stroke-opacity:1;color-rendering:auto;image-rendering:auto;shape-rendering:auto;text-rendering:auto;enable-background:accumulate"
     id="rect3336-5"
     width="94.912186"
     height="179.92828"
     x="-151.67543"
     y="-449.85962"
     transform="scale(-1,-1)" />
  <path
     inkscape:connector-curvature="0"
     style="fill:#ff9900;fill-rule:evenodd"
     d="m 285.94655,462.77452 0,0 c -7.37846,16.0316 -24.94143,24.53584 -42.09979,20.38534 -17.15836,-4.15056 -29.22197,-19.82128 -28.91744,-37.56401 0.30456,-17.74272 12.89402,-32.7076 30.17794,-35.87191 17.28393,-3.16434 34.53782,6.33683 41.35896,22.77497 l -34.3168,14.16267 z"
     id="path15" />
  <circle
     style="color:#000000;clip-rule:nonzero;display:inline;overflow:visible;visibility:visible;opacity:1;isolation:auto;mix-blend-mode:normal;color-interpolation:sRGB;color-interpolation-filters:linearRGB;solid-color:#000000;solid-opacity:1;fill:#ff9900;fill-opacity:1;fill-rule:nonzero;stroke:none;stroke-width:2;stroke-linecap:butt;stroke-linejoin:miter;stroke-miterlimit:4;stroke-dasharray:none;stroke-dashoffset:0;stroke-opacity:1;color-rendering:auto;image-rendering:auto;shape-rendering:auto;text-rendering:auto;enable-background:accumulate"
     id="path4826-3"
     cx="65.957977"
     cy="485.30988"
     r="12.799529" />
  <g
     id="g5704"
     transform="matrix(1.0506744,0,0,1.0506744,6.5592441,-25.531559)">
    <circle
       r="12.182203"
       cy="479.96613"
       cx="128.29663"
       id="path4826-3-5"
       style="color:#000000;clip-rule:nonzero;display:inline;overflow:visible;visibility:visible;opacity:1;isolation:auto;mix-blend-mode:normal;color-interpolation:sRGB;color-interpolation-filters:linearRGB;solid-color:#000000;solid-opacity:1;fill:#cc0000;fill-opacity:1;fill-rule:nonzero;stroke:none;stroke-width:2;stroke-linecap:butt;stroke-linejoin:miter;stroke-miterlimit:4;stroke-dasharray:none;stroke-dashoffset:0;stroke-opacity:1;color-rendering:auto;image-rendering:auto;shape-rendering:auto;text-rendering:auto;enable-background:accumulate" />
    <circle
       r="12.182203"
       cy="479.96613"
       cx="166.29662"
       id="path4826-3-5-6"
       style="color:#000000;clip-rule:nonzero;display:inline;overflow:visible;visibility:visible;opacity:1;isolation:auto;mix-blend-mode:normal;color-interpolation:sRGB;color-interpolation-filters:linearRGB;solid-color:#000000;solid-opacity:1;fill:#cc0000;fill-opacity:1;fill-rule:nonzero;stroke:none;stroke-width:2;stroke-linecap:butt;stroke-linejoin:miter;stroke-miterlimit:4;stroke-dasharray:none;stroke-dashoffset:0;stroke-opacity:1;color-rendering:auto;image-rendering:auto;shape-rendering:auto;text-rendering:auto;enable-background:accumulate" />
    <path
       inkscape:connector-curvature="0"
       id="path4929"
       d="m 127.5,479.96613 32.83898,0"
       style="fill:none;fill-rule:evenodd;stroke:#cc0000;stroke-width:6;stroke-linecap:butt;stroke-linejoin:miter;stroke-miterlimit:4;stroke-dasharray:none;stroke-opacity:1" />
  </g>
  <flowRoot
     xml:space="preserve"
     id="flowRoot4945"
     style="font-style:normal;font-variant:normal;font-weight:normal;font-stretch:normal;font-size:13.13342953px;line-height:125%;font-family:Helvetica;-inkscape-font-specification:Sans;text-align:start;letter-spacing:0px;word-spacing:0px;writing-mode:lr-tb;text-anchor:start;fill:#000000;fill-opacity:1;stroke:none;stroke-width:1px;stroke-linecap:butt;stroke-linejoin:miter;stroke-opacity:1"><flowRegion
       id="flowRegion4947"><rect
         id="rect4949"
         width="1.1130025"
         height="36.729084"
         x="134.4655"
         y="61.629894" /></flowRegion><flowPara
       id="flowPara4951" /></flowRoot>  <path
     style="fill:#ff0000;fill-opacity:1;fill-rule:evenodd;stroke:#cb0000;stroke-width:11.80533314;stroke-linecap:butt;stroke-linejoin:miter;stroke-miterlimit:4;stroke-dasharray:none;stroke-dashoffset:0;stroke-opacity:1"
     d="m 17.466673,-0.2404806 0,504.0758306"
     id="path4138-8"
     inkscape:connector-curvature="0" />
  <g
     id="g5174"
     transform="matrix(1.6128296,0,0,1.6128296,-444.87052,220.35099)">
    <path
       id="path29"
       d="m 293.22474,-67.107546 0,0 c 0,-6.426936 5.00697,-11.63698 11.18339,-11.63698 l 44.73219,0 0,0 c 2.96604,0 5.81057,1.226042 7.90786,3.408394 2.09729,2.182352 3.27554,5.142261 3.27554,8.228586 l 0,71.5032359 c 0,6.4269111 -5.00698,11.6369731 -11.1834,11.6369731 l -44.73219,0 c -6.17642,0 -11.18339,-5.210062 -11.18339,-11.6369731 z"
       style="fill:#ff9900;fill-rule:evenodd"
       inkscape:connector-curvature="0" />
    <path
       id="path31"
       d="m 305.85918,-22.969162 0,0 c 0,-12.129463 10.94381,-21.962329 24.4437,-21.962329 l 0,0 c 13.49988,0 24.44371,9.832866 24.44371,21.962329 l 0,0 c 0,12.129464 -10.94383,21.9622935 -24.44371,21.9622935 l 0,0 c -13.49989,0 -24.4437,-9.8328295 -24.4437,-21.9622935 z"
       style="fill:#cccccc;fill-opacity:1;fill-rule:evenodd"
       inkscape:connector-curvature="0" />
    <path
       id="path33"
       d="m 302.36864,-65.163828 0,0 c 0,-2.313507 2.01648,-4.188977 4.50393,-4.188977 l 0,0 c 2.48746,0 4.50394,1.87547 4.50394,4.188977 l 0,0 c 0,2.31351 -2.01648,4.18896 -4.50394,4.18896 l 0,0 c -2.48745,0 -4.50393,-1.87545 -4.50393,-4.18896 z"
       style="fill:#cccccc;fill-opacity:1;fill-rule:evenodd"
       inkscape:connector-curvature="0" />
    <path
       id="path35"
       d="m 307.7204,-52.859204 0,0 c 0,-3.483605 2.96503,-6.307624 6.62258,-6.307624 l 0,0 c 3.65756,0 6.62259,2.824019 6.62259,6.307624 l 0,0 c 0,3.483605 -2.96503,6.307624 -6.62259,6.307624 l 0,0 c -3.65755,0 -6.62258,-2.824019 -6.62258,-6.307624 z"
       style="fill:#cccccc;fill-opacity:1;fill-rule:evenodd"
       inkscape:connector-curvature="0" />
    <path
       id="path37"
       d="m 335.34082,-53.916061 0,0 c 0,-3.448117 2.49075,-6.243366 5.56326,-6.243366 l 0,0 c 3.0725,0 5.56325,2.795249 5.56325,6.243366 l 0,0 c 0,3.448116 -2.49075,6.243365 -5.56325,6.243365 l 0,0 c -3.07251,0 -5.56326,-2.795249 -5.56326,-6.243365 z"
       style="fill:#cccccc;fill-opacity:1;fill-rule:evenodd"
       inkscape:connector-curvature="0" />
    <path
       id="path39"
       d="m 304.86374,3.9684395 0,0 c 0,-3.14089102 2.68722,-5.6870722 6.00205,-5.6870722 l 0,0 c 3.31483,0 6.00204,2.54618118 6.00204,5.6870722 l 0,0 c 0,3.1408911 -2.68721,5.687113 -6.00204,5.687113 l 0,0 c -3.31483,0 -6.00205,-2.5462219 -6.00205,-5.687113 z"
       style="fill:#cccccc;fill-opacity:1;fill-rule:evenodd"
       inkscape:connector-curvature="0" />
  </g>
  <g
     id="g5659"
     transform="matrix(1.2705299,0,0,1.2705299,-52.60708,-22.692717)">
    <path
       id="path29-5-1-8"
       d="m 196.03983,82.002733 0,0 c 0,-4.065579 3.16733,-7.361371 7.07444,-7.361371 l 28.29688,0 0,0 c 1.87627,0 3.67567,0.775575 5.00239,2.156097 1.32671,1.380521 2.07205,3.252913 2.07205,5.205274 l 0,45.231817 c 0,4.06557 -3.16733,7.36137 -7.07444,7.36137 l -28.29688,0 c -3.90711,0 -7.07444,-3.2958 -7.07444,-7.36137 z"
       style="fill:#cc0000;fill-opacity:1;fill-rule:evenodd"
       inkscape:connector-curvature="0" />
    <path
       id="path31-2-2-0"
       d="m 204.03218,109.92398 0,0 c 0,-7.67291 6.92288,-13.893024 15.4627,-13.893024 l 0,0 c 8.53981,0 15.46271,6.220114 15.46271,13.893024 l 0,0 c 0,7.67291 -6.9229,13.893 -15.46271,13.893 l 0,0 c -8.53982,0 -15.4627,-6.22009 -15.4627,-13.893 z"
       style="fill:#cccccc;fill-opacity:1;fill-rule:evenodd"
       inkscape:connector-curvature="0" />
    <path
       id="path33-9-0-9"
       d="m 201.82412,83.232298 0,0 c 0,-1.463488 1.27559,-2.649881 2.84912,-2.649881 l 0,0 c 1.57352,0 2.84912,1.186393 2.84912,2.649881 l 0,0 c 0,1.46349 -1.2756,2.64987 -2.84912,2.64987 l 0,0 c -1.57353,0 -2.84912,-1.18638 -2.84912,-2.64987 z"
       style="fill:#cccccc;fill-opacity:1;fill-rule:evenodd"
       inkscape:connector-curvature="0" />
    <path
       id="path35-7-3-5"
       d="m 205.20956,91.01601 0,0 c 0,-2.203674 1.87563,-3.990104 4.18934,-3.990104 l 0,0 c 2.31371,0 4.18935,1.78643 4.18935,3.990104 l 0,0 c 0,2.203673 -1.87564,3.990103 -4.18935,3.990103 l 0,0 c -2.31371,0 -4.18934,-1.78643 -4.18934,-3.990103 z"
       style="fill:#cccccc;fill-opacity:1;fill-rule:evenodd"
       inkscape:connector-curvature="0" />
    <path
       id="path37-7-2-2"
       d="m 222.6818,90.347458 0,0 c 0,-2.181224 1.57561,-3.949455 3.51923,-3.949455 l 0,0 c 1.94362,0 3.51923,1.768231 3.51923,3.949455 l 0,0 c 0,2.181224 -1.57561,3.949455 -3.51923,3.949455 l 0,0 c -1.94362,0 -3.51923,-1.768231 -3.51923,-3.949455 z"
       style="fill:#cccccc;fill-opacity:1;fill-rule:evenodd"
       inkscape:connector-curvature="0" />
    <path
       id="path39-6-8-1"
       d="m 203.40248,126.96428 0,0 c 0,-1.98688 1.69989,-3.59755 3.7968,-3.59755 l 0,0 c 2.09691,0 3.7968,1.61067 3.7968,3.59755 l 0,0 c 0,1.98688 -1.69989,3.59758 -3.7968,3.59758 l 0,0 c -2.09691,0 -3.7968,-1.6107 -3.7968,-3.59758 z"
       style="fill:#cccccc;fill-opacity:1;fill-rule:evenodd"
       inkscape:connector-curvature="0" />
    <path
       id="path29-5-1"
       d="m 155.72576,110.20738 0,0 c 0,-4.06558 3.16733,-7.36137 7.07443,-7.36137 l 28.29688,0 0,0 c 1.87627,0 3.67568,0.77558 5.00239,2.1561 1.32671,1.38052 2.07206,3.25291 2.07206,5.20527 l 0,45.23182 c 0,4.06557 -3.16734,7.36137 -7.07445,7.36137 l -28.29688,0 c -3.9071,0 -7.07443,-3.2958 -7.07443,-7.36137 z"
       style="fill:#cc0000;fill-opacity:1;fill-rule:evenodd"
       inkscape:connector-curvature="0" />
    <path
       id="path31-2-2"
       d="m 163.71811,138.12863 0,0 c 0,-7.67291 6.92288,-13.89302 15.46269,-13.89302 l 0,0 c 8.53982,0 15.46271,6.22011 15.46271,13.89302 l 0,0 c 0,7.67291 -6.92289,13.893 -15.46271,13.893 l 0,0 c -8.53981,0 -15.46269,-6.22009 -15.46269,-13.893 z"
       style="fill:#cccccc;fill-opacity:1;fill-rule:evenodd"
       inkscape:connector-curvature="0" />
    <path
       id="path33-9-0"
       d="m 161.51004,111.43695 0,0 c 0,-1.46349 1.2756,-2.64988 2.84912,-2.64988 l 0,0 c 1.57353,0 2.84912,1.18639 2.84912,2.64988 l 0,0 c 0,1.46349 -1.27559,2.64987 -2.84912,2.64987 l 0,0 c -1.57352,0 -2.84912,-1.18638 -2.84912,-2.64987 z"
       style="fill:#cccccc;fill-opacity:1;fill-rule:evenodd"
       inkscape:connector-curvature="0" />
    <path
       id="path35-7-3"
       d="m 164.89548,119.22066 0,0 c 0,-2.20367 1.87563,-3.9901 4.18934,-3.9901 l 0,0 c 2.31372,0 4.18935,1.78643 4.18935,3.9901 l 0,0 c 0,2.20367 -1.87563,3.9901 -4.18935,3.9901 l 0,0 c -2.31371,0 -4.18934,-1.78643 -4.18934,-3.9901 z"
       style="fill:#cccccc;fill-opacity:1;fill-rule:evenodd"
       inkscape:connector-curvature="0" />
    <path
       id="path37-7-2"
       d="m 182.36773,118.55211 0,0 c 0,-2.18123 1.57561,-3.94946 3.51923,-3.94946 l 0,0 c 1.94361,0 3.51922,1.76823 3.51922,3.94946 l 0,0 c 0,2.18122 -1.57561,3.94945 -3.51922,3.94945 l 0,0 c -1.94362,0 -3.51923,-1.76823 -3.51923,-3.94945 z"
       style="fill:#cccccc;fill-opacity:1;fill-rule:evenodd"
       inkscape:connector-curvature="0" />
    <path
       id="path39-6-8"
       d="m 163.08841,155.16893 0,0 c 0,-1.98688 1.69989,-3.59755 3.7968,-3.59755 l 0,0 c 2.09691,0 3.79679,1.61067 3.79679,3.59755 l 0,0 c 0,1.98688 -1.69988,3.59758 -3.79679,3.59758 l 0,0 c -2.09691,0 -3.7968,-1.6107 -3.7968,-3.59758 z"
       style="fill:#cccccc;fill-opacity:1;fill-rule:evenodd"
       inkscape:connector-curvature="0" />
    <path
       id="path29-5-1-8-6"
       d="m 227.92144,110.76904 0,0 c 0,-4.06558 3.16733,-7.36137 7.07444,-7.36137 l 28.29688,0 0,0 c 1.87627,0 3.67567,0.77558 5.00238,2.1561 1.32672,1.38052 2.07206,3.25291 2.07206,5.20527 l 0,45.23182 c 0,4.06557 -3.16734,7.36137 -7.07444,7.36137 l -28.29688,0 c -3.90711,0 -7.07444,-3.2958 -7.07444,-7.36137 z"
       style="fill:#cc0000;fill-opacity:1;fill-rule:evenodd"
       inkscape:connector-curvature="0" />
    <path
       id="path31-2-2-0-1"
       d="m 235.91379,138.69029 0,0 c 0,-7.67291 6.92288,-13.89302 15.4627,-13.89302 l 0,0 c 8.53981,0 15.46271,6.22011 15.46271,13.89302 l 0,0 c 0,7.67291 -6.9229,13.893 -15.46271,13.893 l 0,0 c -8.53982,0 -15.4627,-6.22009 -15.4627,-13.893 z"
       style="fill:#cccccc;fill-opacity:1;fill-rule:evenodd"
       inkscape:connector-curvature="0" />
    <path
       id="path33-9-0-9-6"
       d="m 233.70573,111.99861 0,0 c 0,-1.46349 1.27559,-2.64988 2.84911,-2.64988 l 0,0 c 1.57353,0 2.84913,1.18639 2.84913,2.64988 l 0,0 c 0,1.46349 -1.2756,2.64987 -2.84913,2.64987 l 0,0 c -1.57352,0 -2.84911,-1.18638 -2.84911,-2.64987 z"
       style="fill:#808080;fill-opacity:1;fill-rule:evenodd"
       inkscape:connector-curvature="0" />
    <path
       id="path35-7-3-5-0"
       d="m 237.09117,119.78232 0,0 c 0,-2.20367 1.87563,-3.9901 4.18934,-3.9901 l 0,0 c 2.31371,0 4.18934,1.78643 4.18934,3.9901 l 0,0 c 0,2.20367 -1.87563,3.9901 -4.18934,3.9901 l 0,0 c -2.31371,0 -4.18934,-1.78643 -4.18934,-3.9901 z"
       style="fill:#cccccc;fill-opacity:1;fill-rule:evenodd"
       inkscape:connector-curvature="0" />
    <path
       id="path37-7-2-2-9"
       d="m 254.56341,119.11377 0,0 c 0,-2.18123 1.57561,-3.94946 3.51923,-3.94946 l 0,0 c 1.94362,0 3.51923,1.76823 3.51923,3.94946 l 0,0 c 0,2.18122 -1.57561,3.94945 -3.51923,3.94945 l 0,0 c -1.94362,0 -3.51923,-1.76823 -3.51923,-3.94945 z"
       style="fill:#cccccc;fill-opacity:1;fill-rule:evenodd"
       inkscape:connector-curvature="0" />
    <path
       id="path39-6-8-1-1"
       d="m 235.28409,155.73059 0,0 c 0,-1.98688 1.69989,-3.59755 3.7968,-3.59755 l 0,0 c 2.09691,0 3.7968,1.61067 3.7968,3.59755 l 0,0 c 0,1.98688 -1.69989,3.59758 -3.7968,3.59758 l 0,0 c -2.09691,0 -3.7968,-1.6107 -3.7968,-3.59758 z"
       style="fill:#cccccc;fill-opacity:1;fill-rule:evenodd"
       inkscape:connector-curvature="0" />
    <path
       id="path29-5-1-1"
       d="m 187.60737,138.9737 0,0 c 0,-4.06558 3.16733,-7.36137 7.07444,-7.36137 l 28.29688,0 0,0 c 1.87627,0 3.67567,0.77558 5.00238,2.1561 1.32672,1.38052 2.07206,3.25291 2.07206,5.20527 l 0,45.23182 c 0,4.06557 -3.16734,7.36137 -7.07444,7.36137 l -28.29688,0 c -3.90711,0 -7.07444,-3.2958 -7.07444,-7.36137 z"
       style="fill:#cc0000;fill-opacity:1;fill-rule:evenodd"
       inkscape:connector-curvature="0" />
    <path
       id="path31-2-2-5"
       d="m 195.59972,166.89495 0,0 c 0,-7.67291 6.92288,-13.89302 15.4627,-13.89302 l 0,0 c 8.53981,0 15.4627,6.22011 15.4627,13.89302 l 0,0 c 0,7.67291 -6.92289,13.893 -15.4627,13.893 l 0,0 c -8.53982,0 -15.4627,-6.22009 -15.4627,-13.893 z"
       style="fill:#cccccc;fill-opacity:1;fill-rule:evenodd"
       inkscape:connector-curvature="0" />
    <path
       id="path33-9-0-0"
       d="m 193.39166,140.20327 0,0 c 0,-1.46349 1.27559,-2.64988 2.84911,-2.64988 l 0,0 c 1.57353,0 2.84912,1.18639 2.84912,2.64988 l 0,0 c 0,1.46349 -1.27559,2.64987 -2.84912,2.64987 l 0,0 c -1.57352,0 -2.84911,-1.18638 -2.84911,-2.64987 z"
       style="fill:#cccccc;fill-opacity:1;fill-rule:evenodd"
       inkscape:connector-curvature="0" />
    <path
       id="path35-7-3-9"
       d="m 196.7771,147.98698 0,0 c 0,-2.20367 1.87563,-3.9901 4.18934,-3.9901 l 0,0 c 2.31371,0 4.18934,1.78643 4.18934,3.9901 l 0,0 c 0,2.20367 -1.87563,3.9901 -4.18934,3.9901 l 0,0 c -2.31371,0 -4.18934,-1.78643 -4.18934,-3.9901 z"
       style="fill:#cccccc;fill-opacity:1;fill-rule:evenodd"
       inkscape:connector-curvature="0" />
    <path
       id="path37-7-2-4"
       d="m 214.24934,147.31843 0,0 c 0,-2.18123 1.57561,-3.94946 3.51923,-3.94946 l 0,0 c 1.94362,0 3.51923,1.76823 3.51923,3.94946 l 0,0 c 0,2.18122 -1.57561,3.94945 -3.51923,3.94945 l 0,0 c -1.94362,0 -3.51923,-1.76823 -3.51923,-3.94945 z"
       style="fill:#cccccc;fill-opacity:1;fill-rule:evenodd"
       inkscape:connector-curvature="0" />
    <path
       id="path39-6-8-9"
       d="m 194.97002,183.93525 0,0 c 0,-1.98688 1.69989,-3.59755 3.7968,-3.59755 l 0,0 c 2.09691,0 3.7968,1.61067 3.7968,3.59755 l 0,0 c 0,1.98688 -1.69989,3.59758 -3.7968,3.59758 l 0,0 c -2.09691,0 -3.7968,-1.6107 -3.7968,-3.59758 z"
       style="fill:#cccccc;fill-opacity:1;fill-rule:evenodd"
       inkscape:connector-curvature="0" />
  </g>
  <g
     id="g5556"
     transform="matrix(1.1663919,0,0,1.1663919,-30.384993,-24.284688)">
    <circle
       r="24.088984"
       cy="63.010887"
       cx="312.625"
       id="path5026"
       style="color:#000000;clip-rule:nonzero;display:inline;overflow:visible;visibility:visible;opacity:1;isolation:auto;mix-blend-mode:normal;color-interpolation:sRGB;color-interpolation-filters:linearRGB;solid-color:#000000;solid-opacity:1;fill:#ff9900;fill-opacity:1;fill-rule:nonzero;stroke:none;stroke-width:6;stroke-linecap:butt;stroke-linejoin:miter;stroke-miterlimit:4;stroke-dasharray:none;stroke-dashoffset:0;stroke-opacity:1;color-rendering:auto;image-rendering:auto;shape-rendering:auto;text-rendering:auto;enable-background:accumulate" />
    <path
       inkscape:connector-curvature="0"
       id="path5028"
       d="m 297,83.7161 -8.47458,8.73941 -0.79449,36.81144 49.78814,0 L 337.25424,93.25 327.19068,83.18644 Z"
       style="fill:#ff9900;fill-opacity:1;fill-rule:evenodd;stroke:none;stroke-width:1px;stroke-linecap:butt;stroke-linejoin:miter;stroke-opacity:1" />
  </g>
  <g
     id="g5568"
     transform="matrix(0.60562339,0,0,0.58854755,166.33658,0.35201603)">
    <path
       inkscape:connector-curvature="0"
       id="path5028-4-9-7-4"
       d="m 406.84958,50.257265 -8.47458,8.73941 -0.79449,36.811443 49.78814,0 -0.26483,-36.016953 -10.06356,-10.06356 z"
       style="fill:#cc0000;fill-opacity:1;fill-rule:evenodd;stroke:none;stroke-width:1px;stroke-linecap:butt;stroke-linejoin:miter;stroke-opacity:1" />
    <ellipse
       transform="matrix(0.75162112,-0.6595951,0.6595951,0.75162112,0,0)"
       ry="24.923979"
       rx="21.954889"
       cy="345.43692"
       cx="266.49164"
       id="path5026-3-4"
       style="color:#000000;clip-rule:nonzero;display:inline;overflow:visible;visibility:visible;opacity:1;isolation:auto;mix-blend-mode:normal;color-interpolation:sRGB;color-interpolation-filters:linearRGB;solid-color:#000000;solid-opacity:1;fill:#cc0000;fill-opacity:1;fill-rule:nonzero;stroke:none;stroke-width:6;stroke-linecap:butt;stroke-linejoin:miter;stroke-miterlimit:4;stroke-dasharray:none;stroke-dashoffset:0;stroke-opacity:1;color-rendering:auto;image-rendering:auto;shape-rendering:auto;text-rendering:auto;enable-background:accumulate" />
    <path
       inkscape:connector-curvature="0"
       id="path5028-4-9"
       d="m 412.13771,101.40133 -8.47458,8.73941 -0.79449,36.81144 49.78814,0 -0.26483,-36.01695 -10.06356,-10.06356 z"
       style="fill:#cc0000;fill-opacity:1;fill-rule:evenodd;stroke:none;stroke-width:1px;stroke-linecap:butt;stroke-linejoin:miter;stroke-opacity:1" />
    <ellipse
       transform="matrix(0.86601343,-0.50002075,0.50002075,0.86601343,0,0)"
       ry="24.923979"
       rx="21.954889"
       cy="281.49405"
       cx="377.75854"
       id="path5026-3-4-1"
       style="color:#000000;clip-rule:nonzero;display:inline;overflow:visible;visibility:visible;opacity:1;isolation:auto;mix-blend-mode:normal;color-interpolation:sRGB;color-interpolation-filters:linearRGB;solid-color:#000000;solid-opacity:1;fill:#cc0000;fill-opacity:1;fill-rule:nonzero;stroke:none;stroke-width:6;stroke-linecap:butt;stroke-linejoin:miter;stroke-miterlimit:4;stroke-dasharray:none;stroke-dashoffset:0;stroke-opacity:1;color-rendering:auto;image-rendering:auto;shape-rendering:auto;text-rendering:auto;enable-background:accumulate" />
    <path
       inkscape:connector-curvature="0"
       id="path5028-4-9-7"
       d="m 460.13771,73.40133 -8.47458,8.73941 -0.79449,36.81144 49.78814,0 -0.26483,-36.01695 -10.06356,-10.06356 z"
       style="fill:#cc0000;fill-opacity:1;fill-rule:evenodd;stroke:none;stroke-width:1px;stroke-linecap:butt;stroke-linejoin:miter;stroke-opacity:1" />
    <ellipse
       transform="matrix(0.85429975,-0.51978066,0.51978066,0.85429975,0,0)"
       ry="24.923979"
       rx="21.954889"
       cy="246.40546"
       cx="289.71713"
       id="path5026-3-4-5"
       style="color:#000000;clip-rule:nonzero;display:inline;overflow:visible;visibility:visible;opacity:1;isolation:auto;mix-blend-mode:normal;color-interpolation:sRGB;color-interpolation-filters:linearRGB;solid-color:#000000;solid-opacity:1;fill:#cc0000;fill-opacity:1;fill-rule:nonzero;stroke:none;stroke-width:6;stroke-linecap:butt;stroke-linejoin:miter;stroke-miterlimit:4;stroke-dasharray:none;stroke-dashoffset:0;stroke-opacity:1;color-rendering:auto;image-rendering:auto;shape-rendering:auto;text-rendering:auto;enable-background:accumulate" />
    <path
       inkscape:connector-curvature="0"
       id="path5028-4-9-76"
       d="m 358.84958,78.257265 -8.47458,8.73941 -0.79449,36.811435 49.78814,0 -0.26483,-36.016945 -10.06356,-10.06356 z"
       style="fill:#cc0000;fill-opacity:1;fill-rule:evenodd;stroke:none;stroke-width:1px;stroke-linecap:butt;stroke-linejoin:miter;stroke-opacity:1" />
    <ellipse
       transform="matrix(0.85395074,-0.52035385,0.52035385,0.85395074,0,0)"
       ry="24.923979"
       rx="21.954889"
       cy="244.62463"
       cx="341.98477"
       id="path5026-3-4-1-2"
       style="color:#000000;clip-rule:nonzero;display:inline;overflow:visible;visibility:visible;opacity:1;isolation:auto;mix-blend-mode:normal;color-interpolation:sRGB;color-interpolation-filters:linearRGB;solid-color:#000000;solid-opacity:1;fill:#cc0000;fill-opacity:1;fill-rule:nonzero;stroke:none;stroke-width:6;stroke-linecap:butt;stroke-linejoin:miter;stroke-miterlimit:4;stroke-dasharray:none;stroke-dashoffset:0;stroke-opacity:1;color-rendering:auto;image-rendering:auto;shape-rendering:auto;text-rendering:auto;enable-background:accumulate" />
  </g>
</svg>
